<?xml version="1.0" encoding="utf-8"?>
<!-- Generator: Adobe Illustrator 17.0.0, SVG Export Plug-In . SVG Version: 6.00 Build 0)  -->
<!DOCTYPE svg PUBLIC "-//W3C//DTD SVG 1.1//EN" "http://www.w3.org/Graphics/SVG/1.1/DTD/svg11.dtd">
<svg version="1.1" id="Layer_1" xmlns="http://www.w3.org/2000/svg" xmlns:xlink="http://www.w3.org/1999/xlink" x="0px" y="0px"
	 width="286px" height="140px" viewBox="0 73 286 140" enable-background="new 0 73 286 140" xml:space="preserve">
<g id="tags">
	<path fill="#FFFFFF" d="M195.983,150.492c2.971-2.971,4.759-4.759,5.887-7.484c1.129-2.727,1.128-5.258,1.129-9.45l-0.001-36.897
		c0-3.64-1.423-7.067-4.009-9.653c-0.001,0-0.001,0-0.001,0c-2.586-2.586-6.014-4.009-9.654-4.006H152.44
		c-4.197,0-6.728-0.001-9.454,1.129c-2.725,1.129-4.516,2.92-7.481,5.884l-48.512,48.512c-5.325,5.326-5.324,13.991,0,19.318
		l41.162,41.162c5.326,5.324,13.99,5.324,19.315,0L195.983,150.492z M132.669,194.493l-41.161-41.161
		c-2.831-2.832-2.83-7.461-0.001-10.291l48.512-48.512c5.145-5.146,5.145-5.144,12.421-5.144h36.898
		c2-0.001,3.819,0.818,5.138,2.137c1.319,1.32,2.137,3.137,2.137,5.14l0.001,36.898c0,7.276-0.003,7.276-5.148,12.421
		l-48.512,48.514C140.127,197.322,135.5,197.324,132.669,194.493z"/>
	<circle fill="#FFFFFF" cx="176.094" cy="109.904" r="6.857"/>
</g>
<g id="categories" display="none">
	<path display="inline" fill="#FFFFFF" d="M83,62.999c-11.05,0-20,8.95-20,20s8.951,20,20,20c11.05,0,19.998-8.95,19.998-20
		S94.05,62.999,83,62.999z M83,96.749c-7.58,0-13.75-6.167-13.75-13.75s6.17-13.75,13.75-13.75c7.581,0,13.748,6.167,13.748,13.75
		S90.581,96.749,83,96.749z"/>
	<path display="inline" fill="#FFFFFF" d="M142.999,62.999c-11.045,0-20,8.95-20,20s8.955,20,20,20c11.055,0,20-8.95,20-20
		S154.054,62.999,142.999,62.999z M142.999,96.749c-7.578,0-13.75-6.167-13.75-13.75s6.172-13.75,13.75-13.75
		c7.583,0,13.75,6.167,13.75,13.75S150.582,96.749,142.999,96.749z"/>
	<path display="inline" fill="#FFFFFF" d="M202.999,102.999c11.056,0,20.001-8.95,20.001-20s-8.945-20-20.001-20
		c-11.045,0-20.001,8.95-20.001,20S191.954,102.999,202.999,102.999z M202.999,69.249c7.584,0,13.75,6.167,13.75,13.75
		s-6.166,13.75-13.75,13.75c-7.578,0-13.75-6.167-13.75-13.75S195.421,69.249,202.999,69.249z"/>
	<path display="inline" fill="#FFFFFF" d="M83,123c-11.05,0-20,8.951-20,20s8.951,20.001,20,20.001
		c11.05,0,19.998-8.951,19.998-20.001S94.05,123,83,123z M83,156.75c-7.58,0-13.75-6.166-13.75-13.75
		c0-7.583,6.17-13.75,13.75-13.75c7.581,0,13.748,6.167,13.748,13.75C96.748,150.584,90.581,156.75,83,156.75z"/>
	<path display="inline" fill="#FFFFFF" d="M142.999,123c-11.045,0-20,8.951-20,20s8.955,20.001,20,20.001
		c11.055,0,20-8.951,20-20.001S154.054,123,142.999,123z M142.999,156.75c-7.578,0-13.75-6.166-13.75-13.75
		c0-7.583,6.172-13.75,13.75-13.75c7.583,0,13.75,6.167,13.75,13.75C156.749,150.584,150.582,156.75,142.999,156.75z"/>
	<path display="inline" fill="#FFFFFF" d="M202.999,123c-11.045,0-20.001,8.951-20.001,20s8.955,20.001,20.001,20.001
		C214.055,163.001,223,154.05,223,143S214.055,123,202.999,123z M202.999,156.75c-7.578,0-13.75-6.166-13.75-13.75
		c0-7.583,6.172-13.75,13.75-13.75c7.584,0,13.75,6.167,13.75,13.75C216.749,150.584,210.583,156.75,202.999,156.75z"/>
	<path display="inline" fill="#FFFFFF" d="M83,183.001c-11.05,0-20,8.951-20,20.001c0,11.049,8.951,20,20,20
		c11.05,0,19.998-8.951,19.998-20C102.998,191.951,94.05,183.001,83,183.001z M83,216.751c-7.58,0-13.75-6.167-13.75-13.75
		c0-7.584,6.17-13.751,13.75-13.751c7.581,0,13.748,6.167,13.748,13.751C96.748,210.584,90.581,216.751,83,216.751z"/>
	<path display="inline" fill="#FFFFFF" d="M142.999,183.001c-11.045,0-20,8.951-20,20.001c0,11.049,8.955,20,20,20
		c11.055,0,20-8.951,20-20C162.999,191.951,154.054,183.001,142.999,183.001z M142.999,216.751c-7.578,0-13.75-6.167-13.75-13.75
		c0-7.584,6.172-13.751,13.75-13.751c7.583,0,13.75,6.167,13.75,13.751C156.749,210.584,150.582,216.751,142.999,216.751z"/>
	<path display="inline" fill="#FFFFFF" d="M202.999,183.001c-11.045,0-20.001,8.951-20.001,20.001c0,11.049,8.955,20,20.001,20
		c11.056,0,20.001-8.951,20.001-20C223,191.951,214.055,183.001,202.999,183.001z M202.999,216.751
		c-7.578,0-13.75-6.167-13.75-13.75c0-7.584,6.172-13.751,13.75-13.751c7.584,0,13.75,6.167,13.75,13.751
		C216.749,210.584,210.583,216.751,202.999,216.751z"/>
</g>
<g id="pencil" display="none">
	<path display="inline" fill="#FFFFFF" d="M97.139,213.217l-13.753-10.713c-1.381-1.077-3.654-0.467-5.08,1.359L78.47,223
		l18.591-4.523C98.486,216.647,98.521,214.295,97.139,213.217z"/>
	<path display="inline" fill="#FFFFFF" d="M205.746,77.045l-17.059-12.952c-1.714-1.299-3.771-1.463-4.595-0.367l-8.228,10.922
		c-0.828,1.095-0.108,3.041,1.605,4.34l17.06,12.948c1.714,1.302,3.768,1.467,4.595,0.371l8.229-10.924
		C208.175,80.288,207.459,78.345,205.746,77.045z"/>
	<path display="inline" fill="#FFFFFF" d="M191.546,95.325l-17.193-13.394c-0.498-0.387-1.064-0.631-1.652-0.736
		c-1.452-0.263-3.039,0.31-4.055,1.611L83.556,192.03c-1.425,1.827-1.182,4.398,0.545,5.745l17.193,13.393
		c0.498,0.388,1.064,0.631,1.653,0.739c1.451,0.262,3.042-0.312,4.053-1.613l85.094-109.223
		C193.516,99.243,193.272,96.67,191.546,95.325z M103.026,202.383L92.2,193.947l80.421-103.23l10.832,8.438L103.026,202.383z"/>
</g>
</svg>
