<?xml version="1.0" encoding="utf-8"?>
<!-- Generator: Adobe Illustrator 17.0.0, SVG Export Plug-In . SVG Version: 6.00 Build 0)  -->
<!DOCTYPE svg PUBLIC "-//W3C//DTD SVG 1.1//EN" "http://www.w3.org/Graphics/SVG/1.1/DTD/svg11.dtd">
<svg version="1.1" id="Layer_1" xmlns="http://www.w3.org/2000/svg" xmlns:xlink="http://www.w3.org/1999/xlink" x="0px" y="0px"
	 width="286px" height="140px" viewBox="0 73 286 140" enable-background="new 0 73 286 140" xml:space="preserve">
<g id="tags" display="none">
	<path display="inline" fill="#FFFFFF" d="M213.645,152.989c3.961-3.961,6.345-6.345,7.85-9.979c1.505-3.636,1.504-7.011,1.505-12.6
		l-0.001-49.196c0-4.853-1.898-9.423-5.345-12.871c-0.001,0-0.001,0-0.001,0c-3.448-3.448-8.019-5.345-12.872-5.342h-49.194
		c-5.596,0-8.971-0.001-12.605,1.505c-3.634,1.505-6.021,3.893-9.975,7.846l-64.683,64.683c-7.1,7.101-7.099,18.655,0,25.757
		l54.883,54.883c7.102,7.099,18.654,7.099,25.753,0L213.645,152.989z M129.225,211.657l-54.881-54.882
		c-3.775-3.776-3.774-9.948-0.001-13.721l64.683-64.683c6.86-6.861,6.86-6.859,16.562-6.859h49.198
		c2.667-0.002,5.092,1.091,6.851,2.85c1.759,1.76,2.85,4.183,2.85,6.853l0.002,49.197c0,9.701-0.004,9.701-6.864,16.562
		l-64.683,64.685C139.17,215.429,133,215.432,129.225,211.657z"/>
	<circle display="inline" fill="#FFFFFF" cx="187.126" cy="98.872" r="9.143"/>
</g>
<g id="categories">
	<path fill="#FFFFFF" d="M98,82.999c-8.287,0-15,6.713-15,15s6.713,15,15,15s14.998-6.713,14.998-15S106.288,82.999,98,82.999z
		 M98,108.312c-5.686,0-10.313-4.626-10.313-10.313c0-5.687,4.627-10.313,10.313-10.313s10.311,4.626,10.311,10.313
		C108.311,103.687,103.686,108.312,98,108.312z"/>
	<path fill="#FFFFFF" d="M142.999,82.999c-8.284,0-15,6.713-15,15s6.716,15,15,15c8.291,0,15-6.713,15-15
		S151.29,82.999,142.999,82.999z M142.999,108.312c-5.683,0-10.313-4.626-10.313-10.313c0-5.687,4.629-10.313,10.313-10.313
		c5.687,0,10.313,4.626,10.313,10.313C153.312,103.687,148.686,108.312,142.999,108.312z"/>
	<path fill="#FFFFFF" d="M187.999,112.999c8.292,0,15.001-6.713,15.001-15s-6.709-15-15.001-15c-8.284,0-15.001,6.713-15.001,15
		S179.715,112.999,187.999,112.999z M187.999,87.687c5.688,0,10.313,4.626,10.313,10.313c0,5.687-4.625,10.313-10.313,10.313
		c-5.683,0-10.313-4.626-10.313-10.313C177.687,92.312,182.316,87.687,187.999,87.687z"/>
	<path fill="#FFFFFF" d="M98,128c-8.287,0-15,6.713-15,15c0,8.287,6.713,15.001,15,15.001s14.998-6.713,14.998-15.001
		C112.998,134.712,106.288,128,98,128z M98,153.313c-5.686,0-10.313-4.625-10.313-10.313c0-5.687,4.627-10.313,10.313-10.313
		s10.311,4.625,10.311,10.313C108.311,148.688,103.686,153.313,98,153.313z"/>
	<path fill="#FFFFFF" d="M142.999,128c-8.284,0-15,6.713-15,15c0,8.287,6.716,15.001,15,15.001c8.291,0,15-6.713,15-15.001
		C157.999,134.712,151.29,128,142.999,128z M142.999,153.313c-5.683,0-10.313-4.625-10.313-10.313
		c0-5.687,4.629-10.313,10.313-10.313c5.687,0,10.313,4.625,10.313,10.313C153.312,148.688,148.686,153.313,142.999,153.313z"/>
	<path fill="#FFFFFF" d="M187.999,128c-8.284,0-15.001,6.713-15.001,15c0,8.287,6.717,15.001,15.001,15.001
		c8.292,0,15.001-6.713,15.001-15.001C203,134.712,196.291,128,187.999,128z M187.999,153.313c-5.683,0-10.313-4.625-10.313-10.313
		c0-5.687,4.629-10.313,10.313-10.313c5.688,0,10.313,4.625,10.313,10.313C198.312,148.688,193.687,153.313,187.999,153.313z"/>
	<path fill="#FFFFFF" d="M98,173.001c-8.287,0-15,6.713-15,15.001c0,8.286,6.713,15,15,15s14.998-6.713,14.998-15
		C112.998,179.714,106.288,173.001,98,173.001z M98,198.314c-5.686,0-10.313-4.625-10.313-10.313
		c0-5.688,4.627-10.313,10.313-10.313s10.311,4.625,10.311,10.313C108.311,193.688,103.686,198.314,98,198.314z"/>
	<path fill="#FFFFFF" d="M142.999,173.001c-8.284,0-15,6.713-15,15.001c0,8.286,6.716,15,15,15c8.291,0,15-6.713,15-15
		C157.999,179.714,151.29,173.001,142.999,173.001z M142.999,198.314c-5.683,0-10.313-4.625-10.313-10.313
		c0-5.688,4.629-10.313,10.313-10.313c5.687,0,10.313,4.625,10.313,10.313C153.312,193.688,148.686,198.314,142.999,198.314z"/>
	<path fill="#FFFFFF" d="M187.999,173.001c-8.284,0-15.001,6.713-15.001,15.001c0,8.286,6.717,15,15.001,15
		c8.292,0,15.001-6.713,15.001-15C203,179.714,196.291,173.001,187.999,173.001z M187.999,198.314
		c-5.683,0-10.313-4.625-10.313-10.313c0-5.688,4.629-10.313,10.313-10.313c5.688,0,10.313,4.625,10.313,10.313
		C198.312,193.688,193.687,198.314,187.999,198.314z"/>
</g>
<g id="pencil" display="none">
	<path display="inline" fill="#FFFFFF" d="M97.139,213.217l-13.753-10.713c-1.381-1.077-3.654-0.467-5.08,1.359L78.47,223
		l18.591-4.523C98.486,216.647,98.521,214.295,97.139,213.217z"/>
	<path display="inline" fill="#FFFFFF" d="M205.746,77.045l-17.059-12.952c-1.714-1.299-3.771-1.463-4.595-0.367l-8.228,10.922
		c-0.828,1.095-0.108,3.041,1.605,4.34l17.06,12.948c1.714,1.302,3.768,1.467,4.595,0.371l8.229-10.924
		C208.175,80.288,207.459,78.345,205.746,77.045z"/>
	<path display="inline" fill="#FFFFFF" d="M191.546,95.325l-17.193-13.394c-0.498-0.387-1.064-0.631-1.652-0.736
		c-1.452-0.263-3.039,0.31-4.055,1.611L83.556,192.03c-1.425,1.827-1.182,4.398,0.545,5.745l17.193,13.393
		c0.498,0.388,1.064,0.631,1.653,0.739c1.451,0.262,3.042-0.312,4.053-1.613l85.094-109.223
		C193.516,99.243,193.272,96.67,191.546,95.325z M103.026,202.383L92.2,193.947l80.421-103.23l10.832,8.438L103.026,202.383z"/>
</g>
</svg>
