<?xml version="1.0" encoding="utf-8"?>
<!-- Generator: Adobe Illustrator 17.0.0, SVG Export Plug-In . SVG Version: 6.00 Build 0)  -->
<!DOCTYPE svg PUBLIC "-//W3C//DTD SVG 1.1//EN" "http://www.w3.org/Graphics/SVG/1.1/DTD/svg11.dtd">
<svg version="1.1" id="Layer_1" xmlns="http://www.w3.org/2000/svg" xmlns:xlink="http://www.w3.org/1999/xlink" x="0px" y="0px"
	 width="286px" height="286px" viewBox="0 0 286 286" enable-background="new 0 0 286 286" xml:space="preserve">
<g id="tags" display="none">
	<path display="inline" fill="#FFFFFF" d="M222.475,154.238c4.456-4.456,7.139-7.139,8.831-11.227
		c1.694-4.09,1.692-7.887,1.694-14.175l-0.001-55.346c0-5.46-2.135-10.601-6.013-14.48c-0.001,0-0.001,0-0.001,0
		c-3.879-3.879-9.021-6.013-14.481-6.01h-55.344c-6.296,0-10.093-0.001-14.18,1.694c-4.088,1.694-6.773,4.379-11.221,8.827
		L58.99,136.29c-7.987,7.989-7.987,20.987,0,28.976l61.743,61.744c7.99,7.987,20.986,7.987,28.972,0L222.475,154.238z
		 M127.503,220.239l-61.741-61.742c-4.247-4.248-4.246-11.191-0.001-15.436l72.768-72.769c7.718-7.718,7.718-7.717,18.632-7.717
		h55.348c3.001-0.002,5.729,1.228,7.708,3.206c1.979,1.98,3.207,4.706,3.207,7.709l0.002,55.347c0,10.914-0.004,10.914-7.722,18.632
		l-72.769,72.77C138.692,224.483,131.75,224.486,127.503,220.239z"/>
	<circle display="inline" fill="#FFFFFF" cx="192.642" cy="93.356" r="10.286"/>
</g>
<g id="categories" display="none">
	<path display="inline" fill="#FFFFFF" d="M83,62.999c-11.05,0-20,8.95-20,20s8.951,20,20,20c11.05,0,19.998-8.95,19.998-20
		S94.05,62.999,83,62.999z M83,96.749c-7.58,0-13.75-6.167-13.75-13.75c0-7.583,6.17-13.75,13.75-13.75
		c7.581,0,13.748,6.167,13.748,13.75C96.748,90.582,90.581,96.749,83,96.749z"/>
	<path display="inline" fill="#FFFFFF" d="M142.999,62.999c-11.045,0-20,8.95-20,20s8.955,20,20,20c11.055,0,20-8.95,20-20
		S154.054,62.999,142.999,62.999z M142.999,96.749c-7.578,0-13.75-6.167-13.75-13.75c0-7.583,6.172-13.75,13.75-13.75
		c7.583,0,13.75,6.167,13.75,13.75C156.749,90.582,150.582,96.749,142.999,96.749z"/>
	<path display="inline" fill="#FFFFFF" d="M202.999,102.999c11.056,0,20.001-8.95,20.001-20s-8.945-20-20.001-20
		c-11.045,0-20.001,8.95-20.001,20S191.954,102.999,202.999,102.999z M202.999,69.249c7.584,0,13.75,6.167,13.75,13.75
		c0,7.583-6.166,13.75-13.75,13.75c-7.578,0-13.75-6.167-13.75-13.75C189.249,75.416,195.421,69.249,202.999,69.249z"/>
	<path display="inline" fill="#FFFFFF" d="M83,123c-11.05,0-20,8.951-20,20s8.951,20.001,20,20.001
		c11.05,0,19.998-8.951,19.998-20.001S94.05,123,83,123z M83,156.75c-7.58,0-13.75-6.166-13.75-13.75
		c0-7.583,6.17-13.75,13.75-13.75c7.581,0,13.748,6.167,13.748,13.75C96.748,150.584,90.581,156.75,83,156.75z"/>
	<path display="inline" fill="#FFFFFF" d="M142.999,123c-11.045,0-20,8.951-20,20s8.955,20.001,20,20.001
		c11.055,0,20-8.951,20-20.001S154.054,123,142.999,123z M142.999,156.75c-7.578,0-13.75-6.166-13.75-13.75
		c0-7.583,6.172-13.75,13.75-13.75c7.583,0,13.75,6.167,13.75,13.75C156.749,150.584,150.582,156.75,142.999,156.75z"/>
	<path display="inline" fill="#FFFFFF" d="M202.999,123c-11.045,0-20.001,8.951-20.001,20s8.955,20.001,20.001,20.001
		C214.055,163.001,223,154.05,223,143S214.055,123,202.999,123z M202.999,156.75c-7.578,0-13.75-6.166-13.75-13.75
		c0-7.583,6.172-13.75,13.75-13.75c7.584,0,13.75,6.167,13.75,13.75C216.749,150.584,210.583,156.75,202.999,156.75z"/>
	<path display="inline" fill="#FFFFFF" d="M83,183.001c-11.05,0-20,8.951-20,20.001c0,11.049,8.951,20,20,20
		c11.05,0,19.998-8.951,19.998-20C102.998,191.951,94.05,183.001,83,183.001z M83,216.751c-7.58,0-13.75-6.167-13.75-13.75
		c0-7.584,6.17-13.751,13.75-13.751c7.581,0,13.748,6.167,13.748,13.751C96.748,210.584,90.581,216.751,83,216.751z"/>
	<path display="inline" fill="#FFFFFF" d="M142.999,183.001c-11.045,0-20,8.951-20,20.001c0,11.049,8.955,20,20,20
		c11.055,0,20-8.951,20-20C162.999,191.951,154.054,183.001,142.999,183.001z M142.999,216.751c-7.578,0-13.75-6.167-13.75-13.75
		c0-7.584,6.172-13.751,13.75-13.751c7.583,0,13.75,6.167,13.75,13.751C156.749,210.584,150.582,216.751,142.999,216.751z"/>
	<path display="inline" fill="#FFFFFF" d="M202.999,183.001c-11.045,0-20.001,8.951-20.001,20.001c0,11.049,8.955,20,20.001,20
		c11.056,0,20.001-8.951,20.001-20C223,191.951,214.055,183.001,202.999,183.001z M202.999,216.751
		c-7.578,0-13.75-6.167-13.75-13.75c0-7.584,6.172-13.751,13.75-13.751c7.584,0,13.75,6.167,13.75,13.751
		C216.749,210.584,210.583,216.751,202.999,216.751z"/>
</g>
<g id="pencil">
	<path fill="#FFFFFF" d="M97.139,213.217l-13.753-10.713c-1.381-1.077-3.654-0.467-5.08,1.359L78.47,223l18.591-4.523
		C98.486,216.647,98.521,214.295,97.139,213.217z"/>
	<path fill="#FFFFFF" d="M205.746,77.045l-17.059-12.952c-1.714-1.299-3.771-1.463-4.595-0.367l-8.228,10.922
		c-0.828,1.095-0.108,3.041,1.605,4.34l17.06,12.948c1.714,1.302,3.768,1.467,4.595,0.371l8.229-10.924
		C208.175,80.288,207.459,78.345,205.746,77.045z"/>
	<path fill="#FFFFFF" d="M191.546,95.325l-17.193-13.394c-0.498-0.387-1.064-0.631-1.652-0.736c-1.452-0.263-3.039,0.31-4.055,1.611
		L83.556,192.03c-1.425,1.827-1.182,4.398,0.545,5.745l17.193,13.393c0.498,0.388,1.064,0.631,1.653,0.739
		c1.451,0.262,3.042-0.312,4.053-1.613l85.094-109.223C193.516,99.243,193.272,96.67,191.546,95.325z M103.026,202.383
		l-10.826-8.436l80.421-103.23l10.832,8.438L103.026,202.383z"/>
</g>
<g>
</g>
<g>
</g>
<g>
</g>
<g>
</g>
<g>
</g>
<g>
</g>
</svg>
