<?xml version="1.0" encoding="utf-8"?>
<!-- Generator: Adobe Illustrator 17.0.0, SVG Export Plug-In . SVG Version: 6.00 Build 0)  -->
<!DOCTYPE svg PUBLIC "-//W3C//DTD SVG 1.1//EN" "http://www.w3.org/Graphics/SVG/1.1/DTD/svg11.dtd">
<svg version="1.1" id="Layer_1" xmlns="http://www.w3.org/2000/svg" xmlns:xlink="http://www.w3.org/1999/xlink" x="0px" y="0px"
	 width="286px" height="140px" viewBox="0 73 286 140" enable-background="new 0 73 286 140" xml:space="preserve">
<g id="tags" display="none">
	<path display="inline" fill="#FFFFFF" d="M222.475,154.238c4.456-4.456,7.139-7.139,8.831-11.227
		c1.694-4.09,1.692-7.887,1.694-14.175l-0.001-55.346c0-5.46-2.135-10.601-6.013-14.48c-0.001,0-0.001,0-0.001,0
		c-3.879-3.879-9.021-6.013-14.481-6.01H157.16c-6.296,0-10.093-0.001-14.18,1.694c-4.088,1.694-6.773,4.379-11.221,8.827
		L58.99,136.29c-7.987,7.989-7.987,20.987,0,28.976l61.743,61.744c7.99,7.987,20.986,7.987,28.972,0L222.475,154.238z
		 M127.503,220.239l-61.741-61.742c-4.247-4.248-4.246-11.191-0.001-15.436l72.768-72.769c7.718-7.718,7.718-7.717,18.632-7.717
		h55.348c3.001-0.002,5.729,1.228,7.708,3.206c1.979,1.98,3.207,4.706,3.207,7.709l0.002,55.347c0,10.914-0.004,10.914-7.722,18.632
		l-72.769,72.77C138.692,224.483,131.75,224.486,127.503,220.239z"/>
	<circle display="inline" fill="#FFFFFF" cx="192.642" cy="93.356" r="10.286"/>
</g>
<g id="categories" display="none">
	<path display="inline" fill="#FFFFFF" d="M83,62.999c-11.05,0-20,8.95-20,20s8.951,20,20,20c11.05,0,19.998-8.95,19.998-20
		S94.05,62.999,83,62.999z M83,96.749c-7.58,0-13.75-6.167-13.75-13.75s6.17-13.75,13.75-13.75c7.581,0,13.748,6.167,13.748,13.75
		S90.581,96.749,83,96.749z"/>
	<path display="inline" fill="#FFFFFF" d="M142.999,62.999c-11.045,0-20,8.95-20,20s8.955,20,20,20c11.055,0,20-8.95,20-20
		S154.054,62.999,142.999,62.999z M142.999,96.749c-7.578,0-13.75-6.167-13.75-13.75s6.172-13.75,13.75-13.75
		c7.583,0,13.75,6.167,13.75,13.75S150.582,96.749,142.999,96.749z"/>
	<path display="inline" fill="#FFFFFF" d="M202.999,102.999c11.056,0,20.001-8.95,20.001-20s-8.945-20-20.001-20
		c-11.045,0-20.001,8.95-20.001,20S191.954,102.999,202.999,102.999z M202.999,69.249c7.584,0,13.75,6.167,13.75,13.75
		s-6.166,13.75-13.75,13.75c-7.578,0-13.75-6.167-13.75-13.75S195.421,69.249,202.999,69.249z"/>
	<path display="inline" fill="#FFFFFF" d="M83,123c-11.05,0-20,8.951-20,20s8.951,20.001,20,20.001
		c11.05,0,19.998-8.951,19.998-20.001S94.05,123,83,123z M83,156.75c-7.58,0-13.75-6.166-13.75-13.75
		c0-7.583,6.17-13.75,13.75-13.75c7.581,0,13.748,6.167,13.748,13.75C96.748,150.584,90.581,156.75,83,156.75z"/>
	<path display="inline" fill="#FFFFFF" d="M142.999,123c-11.045,0-20,8.951-20,20s8.955,20.001,20,20.001
		c11.055,0,20-8.951,20-20.001S154.054,123,142.999,123z M142.999,156.75c-7.578,0-13.75-6.166-13.75-13.75
		c0-7.583,6.172-13.75,13.75-13.75c7.583,0,13.75,6.167,13.75,13.75C156.749,150.584,150.582,156.75,142.999,156.75z"/>
	<path display="inline" fill="#FFFFFF" d="M202.999,123c-11.045,0-20.001,8.951-20.001,20s8.955,20.001,20.001,20.001
		C214.055,163.001,223,154.05,223,143S214.055,123,202.999,123z M202.999,156.75c-7.578,0-13.75-6.166-13.75-13.75
		c0-7.583,6.172-13.75,13.75-13.75c7.584,0,13.75,6.167,13.75,13.75C216.749,150.584,210.583,156.75,202.999,156.75z"/>
	<path display="inline" fill="#FFFFFF" d="M83,183.001c-11.05,0-20,8.951-20,20.001c0,11.049,8.951,20,20,20
		c11.05,0,19.998-8.951,19.998-20C102.998,191.951,94.05,183.001,83,183.001z M83,216.751c-7.58,0-13.75-6.167-13.75-13.75
		c0-7.584,6.17-13.751,13.75-13.751c7.581,0,13.748,6.167,13.748,13.751C96.748,210.584,90.581,216.751,83,216.751z"/>
	<path display="inline" fill="#FFFFFF" d="M142.999,183.001c-11.045,0-20,8.951-20,20.001c0,11.049,8.955,20,20,20
		c11.055,0,20-8.951,20-20C162.999,191.951,154.054,183.001,142.999,183.001z M142.999,216.751c-7.578,0-13.75-6.167-13.75-13.75
		c0-7.584,6.172-13.751,13.75-13.751c7.583,0,13.75,6.167,13.75,13.751C156.749,210.584,150.582,216.751,142.999,216.751z"/>
	<path display="inline" fill="#FFFFFF" d="M202.999,183.001c-11.045,0-20.001,8.951-20.001,20.001c0,11.049,8.955,20,20.001,20
		c11.056,0,20.001-8.951,20.001-20C223,191.951,214.055,183.001,202.999,183.001z M202.999,216.751
		c-7.578,0-13.75-6.167-13.75-13.75c0-7.584,6.172-13.751,13.75-13.751c7.584,0,13.75,6.167,13.75,13.751
		C216.749,210.584,210.583,216.751,202.999,216.751z"/>
</g>
<g id="pencil">
	<path fill="#FFFFFF" d="M108.604,195.663l-10.315-8.035c-1.036-0.808-2.741-0.35-3.81,1.019L94.602,203l13.943-3.392
		C109.614,198.235,109.641,196.471,108.604,195.663z"/>
	<path fill="#FFFFFF" d="M190.06,93.534l-12.794-9.714c-1.286-0.974-2.828-1.097-3.446-0.275l-6.171,8.192
		c-0.621,0.821-0.081,2.281,1.204,3.255l12.795,9.711c1.286,0.977,2.826,1.1,3.446,0.278l6.172-8.193
		C191.881,95.966,191.344,94.509,190.06,93.534z"/>
	<path fill="#FFFFFF" d="M179.41,107.244l-12.895-10.046c-0.374-0.29-0.798-0.473-1.239-0.552c-1.089-0.197-2.279,0.233-3.041,1.208
		l-63.818,81.918c-1.069,1.37-0.887,3.299,0.409,4.309l12.895,10.045c0.373,0.291,0.798,0.473,1.24,0.554
		c1.088,0.197,2.282-0.234,3.04-1.21l63.821-81.917C180.887,110.182,180.704,108.252,179.41,107.244z M113.019,187.537l-8.12-6.327
		l60.316-77.423l8.124,6.329L113.019,187.537z"/>
</g>
</svg>
