<?xml version="1.0" encoding="utf-8"?>
<!-- Generator: Adobe Illustrator 17.0.0, SVG Export Plug-In . SVG Version: 6.00 Build 0)  -->
<!DOCTYPE svg PUBLIC "-//W3C//DTD SVG 1.1//EN" "http://www.w3.org/Graphics/SVG/1.1/DTD/svg11.dtd">
<svg version="1.1" id="Layer_1" xmlns="http://www.w3.org/2000/svg" xmlns:xlink="http://www.w3.org/1999/xlink" x="0px" y="0px"
	 width="286px" height="286px" viewBox="0 0 286 286" enable-background="new 0 0 286 286" xml:space="preserve">
<g id="tags" display="none">
	<path display="inline" fill="#FFFFFF" d="M213.645,152.989c3.961-3.961,6.345-6.345,7.85-9.979c1.505-3.636,1.504-7.011,1.505-12.6
		l-0.001-49.196c0-4.853-1.898-9.423-5.345-12.871c-0.001,0-0.001,0-0.001,0c-3.448-3.448-8.019-5.345-12.872-5.342h-49.194
		c-5.596,0-8.971-0.001-12.605,1.505c-3.634,1.505-6.021,3.893-9.975,7.846l-64.683,64.683c-7.1,7.101-7.099,18.655,0,25.757
		l54.883,54.883c7.102,7.099,18.654,7.099,25.753,0L213.645,152.989z M129.225,211.657l-54.881-54.882
		c-3.775-3.776-3.774-9.948-0.001-13.721l64.683-64.683c6.86-6.861,6.86-6.859,16.562-6.859h49.198
		c2.667-0.002,5.092,1.091,6.851,2.85c1.759,1.76,2.85,4.183,2.85,6.853l0.002,49.197c0,9.701-0.004,9.701-6.864,16.562
		l-64.683,64.685C139.17,215.429,133,215.432,129.225,211.657z"/>
	<circle display="inline" fill="#FFFFFF" cx="187.126" cy="98.872" r="9.143"/>
</g>
<g id="categories">
	<path fill="#FFFFFF" d="M86.75,67.999C76.391,67.999,68,76.39,68,86.749s8.391,18.75,18.75,18.75
		c10.359,0,18.748-8.391,18.748-18.75S97.11,67.999,86.75,67.999z M86.75,99.64c-7.107,0-12.891-5.782-12.891-12.891
		c0-7.109,5.784-12.891,12.891-12.891c7.107,0,12.889,5.782,12.889,12.891C99.639,93.858,93.857,99.64,86.75,99.64z"/>
	<path fill="#FFFFFF" d="M142.999,67.999c-10.355,0-18.75,8.391-18.75,18.75s8.395,18.75,18.75,18.75
		c10.364,0,18.75-8.391,18.75-18.75S153.363,67.999,142.999,67.999z M142.999,99.64c-7.104,0-12.891-5.782-12.891-12.891
		c0-7.109,5.786-12.891,12.891-12.891c7.109,0,12.891,5.782,12.891,12.891C155.89,93.858,150.108,99.64,142.999,99.64z"/>
	<path fill="#FFFFFF" d="M199.249,105.499c10.365,0,18.751-8.391,18.751-18.75s-8.386-18.75-18.751-18.75
		c-10.355,0-18.751,8.391-18.751,18.75S188.894,105.499,199.249,105.499z M199.249,73.858c7.11,0,12.891,5.782,12.891,12.891
		c0,7.109-5.781,12.891-12.891,12.891c-7.104,0-12.891-5.782-12.891-12.891C186.359,79.64,192.145,73.858,199.249,73.858z"/>
	<path fill="#FFFFFF" d="M86.75,124.25C76.391,124.25,68,132.641,68,143s8.391,18.751,18.75,18.751
		c10.359,0,18.748-8.391,18.748-18.751S97.11,124.25,86.75,124.25z M86.75,155.891c-7.107,0-12.891-5.781-12.891-12.891
		c0-7.109,5.784-12.891,12.891-12.891c7.107,0,12.889,5.781,12.889,12.891C99.639,150.11,93.857,155.891,86.75,155.891z"/>
	<path fill="#FFFFFF" d="M142.999,124.25c-10.355,0-18.75,8.391-18.75,18.75s8.395,18.751,18.75,18.751
		c10.364,0,18.75-8.391,18.75-18.751S153.363,124.25,142.999,124.25z M142.999,155.891c-7.104,0-12.891-5.781-12.891-12.891
		c0-7.109,5.786-12.891,12.891-12.891c7.109,0,12.891,5.781,12.891,12.891C155.89,150.11,150.108,155.891,142.999,155.891z"/>
	<path fill="#FFFFFF" d="M199.249,124.25c-10.355,0-18.751,8.391-18.751,18.75s8.396,18.751,18.751,18.751
		c10.365,0,18.751-8.391,18.751-18.751S209.614,124.25,199.249,124.25z M199.249,155.891c-7.104,0-12.891-5.781-12.891-12.891
		c0-7.109,5.786-12.891,12.891-12.891c7.11,0,12.891,5.781,12.891,12.891C212.14,150.11,206.359,155.891,199.249,155.891z"/>
	<path fill="#FFFFFF" d="M86.75,180.501c-10.359,0-18.75,8.391-18.75,18.751c0,10.358,8.391,18.75,18.75,18.75
		c10.359,0,18.748-8.391,18.748-18.75C105.498,188.892,97.11,180.501,86.75,180.501z M86.75,212.142
		c-7.107,0-12.891-5.781-12.891-12.891c0-7.11,5.784-12.891,12.891-12.891c7.107,0,12.889,5.781,12.889,12.891
		C99.639,206.36,93.857,212.142,86.75,212.142z"/>
	<path fill="#FFFFFF" d="M142.999,180.501c-10.355,0-18.75,8.391-18.75,18.751c0,10.358,8.395,18.75,18.75,18.75
		c10.364,0,18.75-8.391,18.75-18.75C161.749,188.892,153.363,180.501,142.999,180.501z M142.999,212.142
		c-7.104,0-12.891-5.781-12.891-12.891c0-7.11,5.786-12.891,12.891-12.891c7.109,0,12.891,5.781,12.891,12.891
		C155.89,206.36,150.108,212.142,142.999,212.142z"/>
	<path fill="#FFFFFF" d="M199.249,180.501c-10.355,0-18.751,8.391-18.751,18.751c0,10.358,8.396,18.75,18.751,18.75
		c10.365,0,18.751-8.391,18.751-18.75C218,188.892,209.614,180.501,199.249,180.501z M199.249,212.142
		c-7.104,0-12.891-5.781-12.891-12.891c0-7.11,5.786-12.891,12.891-12.891c7.11,0,12.891,5.781,12.891,12.891
		C212.14,206.36,206.359,212.142,199.249,212.142z"/>
</g>
<g id="pencil" display="none">
	<path display="inline" fill="#FFFFFF" d="M97.139,213.217l-13.753-10.713c-1.381-1.077-3.654-0.467-5.08,1.359L78.47,223
		l18.591-4.523C98.486,216.647,98.521,214.295,97.139,213.217z"/>
	<path display="inline" fill="#FFFFFF" d="M205.746,77.045l-17.059-12.952c-1.714-1.299-3.771-1.463-4.595-0.367l-8.228,10.922
		c-0.828,1.095-0.108,3.041,1.605,4.34l17.06,12.948c1.714,1.302,3.768,1.467,4.595,0.371l8.229-10.924
		C208.175,80.288,207.459,78.345,205.746,77.045z"/>
	<path display="inline" fill="#FFFFFF" d="M191.546,95.325l-17.193-13.394c-0.498-0.387-1.064-0.631-1.652-0.736
		c-1.452-0.263-3.039,0.31-4.055,1.611L83.556,192.03c-1.425,1.827-1.182,4.398,0.545,5.745l17.193,13.393
		c0.498,0.388,1.064,0.631,1.653,0.739c1.451,0.262,3.042-0.312,4.053-1.613l85.094-109.223
		C193.516,99.243,193.272,96.67,191.546,95.325z M103.026,202.383l-10.826-8.436l80.421-103.23l10.832,8.438L103.026,202.383z"/>
</g>
<g>
</g>
<g>
</g>
<g>
</g>
<g>
</g>
<g>
</g>
<g>
</g>
</svg>
