<?xml version="1.0" encoding="utf-8"?>
<!-- Generator: Adobe Illustrator 17.0.0, SVG Export Plug-In . SVG Version: 6.00 Build 0)  -->
<!DOCTYPE svg PUBLIC "-//W3C//DTD SVG 1.1//EN" "http://www.w3.org/Graphics/SVG/1.1/DTD/svg11.dtd">
<svg version="1.1" id="Layer_1" xmlns="http://www.w3.org/2000/svg" xmlns:xlink="http://www.w3.org/1999/xlink" x="0px" y="0px"
	 width="180px" height="40px" viewBox="0 0 180 40" enable-background="new 0 0 180 40" xml:space="preserve">
<path fill-rule="evenodd" clip-rule="evenodd" fill="#FFFFFF" d="M177.454,39.303v-5.709h-0.112
	c-0.908,1.95-2.219,3.509-3.947,4.667c-1.727,1.154-3.638,1.739-5.741,1.739c-2.696,0-4.827-0.757-6.394-2.284
	c-1.573-1.521-2.353-3.443-2.353-5.765c0-4.975,3.272-7.983,9.827-9.025l8.72-1.308c0-6.127-2.292-9.191-6.865-9.191
	c-3.122,0-6.156,1.265-9.107,3.788v-3.091c1.051-0.836,2.474-1.549,4.274-2.145c1.799-0.59,3.493-0.891,5.082-0.891
	c2.912,0,5.171,0.913,6.765,2.729c1.595,1.822,2.398,4.467,2.398,7.938v18.549H177.454z M177.454,23.957l-7.807,1.142
	c-2.973,0.428-5.06,1.12-6.255,2.078c-1.201,0.958-1.8,2.512-1.8,4.662c0,1.694,0.554,3.087,1.672,4.179
	c1.119,1.097,2.674,1.643,4.667,1.643c2.729,0,4.999-1.014,6.81-3.047c1.805-2.033,2.713-4.658,2.713-7.871V23.957z M149.639,22.147
	c0-3.582-1.041-6.099-2.159-7.547c-1.119-1.449-2.885-2.173-5.299-2.173c-2.235,0-4.162,0.969-5.785,2.897
	c-1.627,1.932-1.953,4.356-1.953,7.27v16.71h-0.056h-2.49h-0.055v-16.71c0-2.913-0.327-5.337-1.954-7.27
	c-1.622-1.928-3.549-2.897-5.785-2.897c-2.414,0-7.458,0.78-7.458,9.72v17.157h-2.546V21.674c0-7.721,4.064-11.587,10.265-11.587
	c6.881,0,8.529,5.026,8.971,7.298c0.512-2.161,1.773-4.251,3.423-5.392c1.65-1.143,3.708-1.906,5.646-1.906
	c6.201,0,9.783,3.865,9.783,11.587v17.629h-2.547V22.147z M93.587,40c-4.135,0-7.408-1.365-9.816-4.105
	c-2.409-2.741-3.609-6.301-3.609-10.685c0-4.734,1.256-8.439,3.775-11.113c2.52-2.674,5.836-4.01,9.954-4.01
	c4.042,0,7.229,1.331,9.578,3.983c2.341,2.657,3.516,6.334,3.516,11.03c0,4.44-1.196,8.033-3.588,10.778
	C101.005,38.629,97.739,40,93.587,40z M101.57,15.685c-1.838-2.173-4.435-3.259-7.79-3.259c-3.344,0-6.006,1.136-7.989,3.398
	c-1.982,2.267-2.973,5.415-2.973,9.442c0,3.731,0.969,6.734,2.907,8.996c1.937,2.267,4.583,3.399,7.944,3.399
	c3.41,0,6.04-1.115,7.89-3.343c1.843-2.227,2.767-5.32,2.767-9.275C104.327,20.977,103.408,17.857,101.57,15.685z M65.923,22.859
	v16.444h-2.492c0,0,0-5.738,0-16.93c0-11.193,8.697-12.147,10.546-12.147c1.052,0,1.993,0.167,2.823,0.502v2.729
	C74.104,12.426,65.923,12.426,65.923,22.859z M52.227,22.202c0-3.375-0.61-5.849-1.828-7.42c-1.217-1.57-3.122-2.356-5.702-2.356
	c-2.435,0-4.578,0.958-6.422,2.869c-1.849,1.916-2.768,4.651-2.768,8.216v15.792H32.96V0h2.547v15.908h0.111
	c2.231-3.877,5.481-5.82,9.743-5.82c3.061,0,5.398,0.997,7.003,2.98c1.606,1.989,2.408,4.84,2.408,8.55v17.686h-2.546V22.202z
	 M13.508,37.661c3.41,0,6.04-1.115,7.889-3.343c0.287-0.346,0.543-0.721,0.785-1.108h2.848c-0.498,0.96-1.088,1.856-1.796,2.668
	C20.844,38.629,17.577,40,13.425,40c-4.135,0-7.408-1.365-9.815-4.105C1.201,33.154,0,29.594,0,25.21
	c0-4.734,1.257-8.439,3.776-11.113c2.519-2.674,5.835-4.01,9.954-4.01c4.042,0,7.23,1.331,9.578,3.983
	c0.567,0.643,1.062,1.348,1.492,2.111h-3.018c-0.123-0.167-0.24-0.339-0.373-0.496c-1.838-2.173-4.435-3.259-7.789-3.259
	c-3.345,0-6.007,1.136-7.989,3.398c-1.982,2.267-2.973,5.415-2.973,9.442c0,3.731,0.969,6.734,2.907,8.996
	C7.501,36.53,10.148,37.661,13.508,37.661z"/>
</svg>
